<svg width="46" height="46" viewBox="0 0 46 46"  xmlns="http://www.w3.org/2000/svg">
<circle cx="23" cy="23" r="22.25" fill="none" stroke="#FFFFFF" stroke-width="1.5"/>
<path d="M18.4333 32.7333C18.3402 32.7333 18.2465 32.7124 18.1585 32.6706C17.94 32.5649 17.8 32.3438 17.8 32.1V28.9333H15.9C14.8525 28.9333 14 28.0809 14 27.0333V16.9C14 15.8525 14.8525 15 15.9 15H31.1C32.1475 15 33 15.8525 33 16.9V27.0333C33 28.0809 32.1475 28.9333 31.1 28.9333H23.4056L18.8292 32.5946C18.7145 32.6865 18.5746 32.7333 18.4333 32.7333ZM15.9 16.2667C15.5504 16.2667 15.2667 16.551 15.2667 16.9V27.0333C15.2667 27.3823 15.5504 27.6667 15.9 27.6667H18.4333C18.7836 27.6667 19.0667 27.9498 19.0667 28.3V30.7827L22.7875 27.8054C22.9002 27.7154 23.0389 27.6667 23.1833 27.6667H31.1C31.4496 27.6667 31.7333 27.3823 31.7333 27.0333V16.9C31.7333 16.551 31.4496 16.2667 31.1 16.2667H15.9Z" />
<path d="M28.5665 21.3336H18.4331C18.0829 21.3336 17.7998 21.0498 17.7998 20.7002C17.7998 20.3506 18.0829 20.0669 18.4331 20.0669H28.5665C28.9167 20.0669 29.1998 20.3506 29.1998 20.7002C29.1998 21.0498 28.9167 21.3336 28.5665 21.3336Z" />
<path d="M23.4998 23.8668H18.4331C18.0829 23.8668 17.7998 23.583 17.7998 23.2334C17.7998 22.8838 18.0829 22.6001 18.4331 22.6001H23.4998C23.85 22.6001 24.1331 22.8838 24.1331 23.2334C24.1331 23.583 23.85 23.8668 23.4998 23.8668Z"/>
</svg>
