<svg width="46" height="46" viewBox="0 0 46 46"  xmlns="http://www.w3.org/2000/svg">
<circle cx="23" cy="23" r="22.25" fill="none" stroke="#FFFFFF" stroke-width="1.5"/>
<path d="M31.7896 14.178C31.2358 13.6688 28.9936 12.0386 23.9957 12.0163C23.9957 12.0163 18.1045 11.6589 15.2325 14.2941C13.6336 15.8931 13.0708 18.2291 13.0127 21.1323C12.9547 24.031 12.8787 29.4666 18.1179 30.9406H18.1223L18.1179 33.1872C18.1179 33.1872 18.0866 34.0983 18.6851 34.2815C19.4087 34.5048 19.8374 33.8125 20.5297 33.0666C20.9094 32.6557 21.432 32.0572 21.8295 31.5971C25.4116 31.8964 28.1673 31.2086 28.48 31.1058C29.2036 30.8691 33.2993 30.3465 33.9648 24.9109C34.6526 19.3189 33.6298 15.777 31.7896 14.178ZM32.3971 24.5178C31.8343 29.0557 28.5157 29.3416 27.9038 29.5381C27.6448 29.623 25.224 30.2259 22.1779 30.0249C22.1779 30.0249 19.9089 32.7629 19.2032 33.473C19.0915 33.5847 18.962 33.6294 18.8772 33.607C18.7566 33.5758 18.7208 33.4328 18.7253 33.2229C18.7253 32.9192 18.7432 29.4845 18.7432 29.4845C18.7387 29.4845 18.7387 29.4845 18.7432 29.4845C14.308 28.2562 14.567 23.629 14.6162 21.2082C14.6653 18.7874 15.1209 16.7998 16.4742 15.4644C18.8995 13.2669 23.9064 13.5929 23.9064 13.5929C28.1316 13.6108 30.1549 14.8837 30.6239 15.308C32.1827 16.648 32.9777 19.8415 32.3971 24.5178Z" />
<path d="M26.0546 21.2931C25.9072 21.2931 25.7822 21.177 25.7733 21.0251C25.7241 20.0648 25.273 19.5958 24.3529 19.5467C24.1966 19.5378 24.076 19.4038 24.0849 19.2475C24.0939 19.0911 24.2279 18.9705 24.3842 18.9795C25.5991 19.0465 26.278 19.7432 26.3405 20.9938C26.3494 21.1502 26.2288 21.2842 26.0725 21.2886C26.0636 21.2931 26.0591 21.2931 26.0546 21.2931Z"/>
<path d="M27.5019 21.7758H27.4975C27.3411 21.7713 27.2161 21.6418 27.2205 21.4854C27.2429 20.5207 26.966 19.7391 26.3764 19.0959C25.7913 18.4527 24.9829 18.1044 23.9154 18.0284C23.7591 18.015 23.6429 17.881 23.6563 17.7247C23.6697 17.5684 23.8037 17.4523 23.96 17.4657C25.166 17.555 26.1173 17.9748 26.7962 18.7163C27.4796 19.4622 27.8101 20.3956 27.7878 21.4988C27.7833 21.6552 27.6538 21.7758 27.5019 21.7758Z" />
<path d="M28.985 22.3564C28.8286 22.3564 28.7036 22.2313 28.7036 22.075C28.6902 20.3465 28.1944 19.0289 27.185 18.0418C26.189 17.0681 24.925 16.5723 23.4376 16.5589C23.2813 16.5589 23.1562 16.4294 23.1562 16.2731C23.1562 16.1168 23.2858 15.9917 23.4376 15.9917C25.0768 16.0051 26.4703 16.5545 27.5736 17.6353C28.6812 18.7162 29.2485 20.208 29.2663 22.0661C29.2708 22.2268 29.1457 22.3564 28.985 22.3564C28.9894 22.3564 28.9894 22.3564 28.985 22.3564Z" />
<path d="M24.4198 24.7905C24.4198 24.7905 24.8173 24.8262 25.0317 24.5627L25.4471 24.0401C25.6481 23.7811 26.1349 23.6158 26.6084 23.8794C26.8719 24.0267 27.3498 24.3215 27.6446 24.5404C27.9617 24.7726 28.6049 25.3086 28.6094 25.3131C28.9175 25.5721 28.989 25.9518 28.7791 26.3582C28.7791 26.3582 28.7791 26.3627 28.7791 26.3672C28.5647 26.7468 28.2744 27.1041 27.9126 27.4346C27.9081 27.4346 27.9081 27.4391 27.9037 27.4391C27.6044 27.6892 27.3096 27.8322 27.0238 27.8634C26.988 27.8724 26.9478 27.8724 26.8942 27.8724C26.7692 27.8724 26.6441 27.8545 26.5191 27.8143L26.5101 27.8009C26.0635 27.6758 25.3221 27.3632 24.0893 26.6798C23.2854 26.2376 22.6199 25.7865 22.0526 25.3354C21.7534 25.0987 21.4497 24.8352 21.137 24.5225C21.1281 24.5136 21.1147 24.5002 21.1057 24.4913C21.0968 24.4823 21.0834 24.4689 21.0745 24.46C21.0655 24.4511 21.0521 24.4377 21.0432 24.4287C21.0343 24.4198 21.0209 24.4064 21.0119 24.3975C20.7038 24.0848 20.4358 23.7811 20.199 23.4818C19.7479 22.9191 19.2968 22.2491 18.8546 21.4451C18.1713 20.2079 17.8586 19.4665 17.7336 19.0243L17.7202 19.0154C17.68 18.8903 17.6621 18.7653 17.6621 18.6402C17.6621 18.5866 17.6621 18.5464 17.671 18.5107C17.7068 18.2204 17.8497 17.9301 18.0954 17.6308C18.0954 17.6263 18.0998 17.6263 18.0998 17.6219C18.4303 17.2556 18.7877 16.9698 19.1673 16.7554C19.1673 16.7554 19.1718 16.7554 19.1762 16.7554C19.5782 16.5455 19.9579 16.6169 20.2214 16.9251C20.2214 16.9251 20.7618 17.5727 20.9941 17.8899C21.2129 18.1891 21.5077 18.6626 21.6551 18.9261C21.9186 19.3995 21.7534 19.8864 21.4943 20.0873L20.9717 20.5027C20.7082 20.7171 20.744 21.1146 20.744 21.1146C20.744 21.1146 21.5166 24.0535 24.4198 24.7905Z" />
</svg>
